<svg xmlns="http://www.w3.org/2000/svg" width="50.545" height="50.544" viewBox="0 0 50.545 50.544"><g transform="translate(0 0)"><g transform="translate(50.545 50.545) rotate(180)" fill="none"><path d="M25.272,0A25.272,25.272,0,1,1,0,25.272,25.272,25.272,0,0,1,25.272,0Z" stroke="none"/><path d="M 25.27225303649902 1.000003814697266 C 21.99508285522461 1.000003814697266 18.81646347045898 1.641624450683594 15.82470321655273 2.907024383544922 C 12.93450164794922 4.129482269287109 10.338623046875 5.879734039306641 8.109184265136719 8.109184265136719 C 5.879734039306641 10.338623046875 4.129482269287109 12.93450164794922 2.907024383544922 15.82470321655273 C 1.641624450683594 18.81646347045898 1.000003814697266 21.99508285522461 1.000003814697266 25.27225303649902 C 1.000003814697266 28.54942321777344 1.641624450683594 31.72804260253906 2.907024383544922 34.71980285644531 C 4.129482269287109 37.61000442504883 5.879734039306641 40.20588302612305 8.109184265136719 42.43532180786133 C 10.338623046875 44.66477203369141 12.93450164794922 46.41502380371094 15.82470321655273 47.63748168945312 C 18.81646347045898 48.90288162231445 21.99508285522461 49.54450225830078 25.27225303649902 49.54450225830078 C 28.54942321777344 49.54450225830078 31.72804260253906 48.90288162231445 34.71980285644531 47.63748168945312 C 37.61000442504883 46.41502380371094 40.20588302612305 44.66477203369141 42.43532180786133 42.43532180786133 C 44.66477203369141 40.20588302612305 46.41502380371094 37.61000442504883 47.63748168945312 34.71980285644531 C 48.90288162231445 31.72804260253906 49.54450225830078 28.54942321777344 49.54450225830078 25.27225303649902 C 49.54450225830078 21.99508285522461 48.90288162231445 18.81646347045898 47.63748168945312 15.82470321655273 C 46.41502380371094 12.93450164794922 44.66477203369141 10.338623046875 42.43532180786133 8.109184265136719 C 40.20588302612305 5.879734039306641 37.61000442504883 4.129482269287109 34.71980285644531 2.907024383544922 C 31.72804260253906 1.641624450683594 28.54942321777344 1.000003814697266 25.27225303649902 1.000003814697266 M 25.27225303649902 3.814697265625e-06 C 39.22973251342773 3.814697265625e-06 50.54450225830078 11.31477355957031 50.54450225830078 25.27225303649902 C 50.54450225830078 39.22973251342773 39.22973251342773 50.54450225830078 25.27225303649902 50.54450225830078 C 11.31477355957031 50.54450225830078 3.814697265625e-06 39.22973251342773 3.814697265625e-06 25.27225303649902 C 3.814697265625e-06 11.31477355957031 11.31477355957031 3.814697265625e-06 25.27225303649902 3.814697265625e-06 Z" stroke="none" fill="#60a244"/></g><path d="M0,0,7.018,5.417,14.036,0" transform="translate(23.385 31.856) rotate(-90)" fill="none" stroke="#60a244" stroke-linecap="round" stroke-linejoin="round" stroke-width="3"/></g></svg>