<svg xmlns="http://www.w3.org/2000/svg" xmlns:xlink="http://www.w3.org/1999/xlink" width="1366" height="672" viewBox="0 0 1366 672"><defs><clipPath id="a"><rect width="1366" height="672" rx="5" transform="translate(0 5592)" fill="none"/></clipPath><clipPath id="b"><rect width="218.194" height="161.656" fill="none"/></clipPath><clipPath id="c"><rect width="218.238" height="161.617" fill="none"/></clipPath></defs><g transform="translate(0 -5592)" clip-path="url(#a)"><g transform="translate(56 5571.752)" opacity="0.8"><g transform="translate(0 0)" clip-path="url(#b)"><path d="M0,93.887C0,27.631,33.148,1.023,92.865,0l6.544,31.635c-34.626,3.514-51.711,21.09-49.22,49.7H81.337v80.319H0Zm118.829,0C118.829,27.631,151.938,1.023,211.7,0l6.5,31.635c-34.622,3.514-51.707,21.09-49.172,49.7h31.1v80.319h-81.3Z" transform="translate(0 0.002)" fill="#fff"/></g></g><g transform="translate(1092.762 6121.383)" opacity="0.8"><g transform="translate(0 0)" clip-path="url(#c)"><path d="M0,130.022c34.661-3.514,51.7-21.09,49.211-49.7h-31.1V0h81.3V67.77c0,66.257-33.113,92.865-92.873,93.847Zm118.829,0c34.622-3.514,51.707-21.09,49.172-49.7H136.9V0h81.337V67.77c0,66.257-33.152,92.865-92.869,93.847Z" transform="translate(0 0)" fill="#fff"/></g></g></g></svg>